<svg xmlns="http://www.w3.org/2000/svg" style="display: none;">
    <!-- YouTube -->
    <symbol id="youtube" viewBox="0 0 24 24" fill="currentColor">
        <path d="M23.5 6.5c-.2-1.6-.8-2.3-1.6-2.8C20.7 3 12 3 12 3S3.3 3 2.1 3.7c-.8.5-1.4 1.2-1.6 2.8C0 8.4 0 12 0 12s0 3.6.5 5.5c.2 1.6.8 2.3 1.6 2.8C3.3 22 12 22 12 22s8.7 0 9.9-.7c.8-.5 1.4-1.2 1.6-2.8.5-1.9.5-5.5.5-5.5s0-3.6-.5-5.5zM9.5 15.5v-7l6 3.5-6 3.5z"/>
    </symbol>

    <!-- Google -->
    <symbol id="google" viewBox="0 0 24 24" fill="currentColor">
        <path d="M21.6 12.2c0-.7-.1-1.4-.2-2H12v3.8h5.4c-.2 1.2-.9 2.2-1.9 2.9v2.4h3.1c1.8-1.6 2.9-4 2.9-7.1z"/>
        <path d="M12 22c2.4 0 4.4-.8 5.9-2.1l-3.1-2.4c-.9.6-2.1.9-3.4.9-2.6 0-4.8-1.8-5.6-4.2H2.6v2.6C4.1 19.8 7.8 22 12 22z"/>
        <path d="M6.4 13.2c-.2-.6-.4-1.2-.4-1.9s.2-1.3.4-1.9V6.8H2.6C1.9 8.2 1.5 9.6 1.5 11.3s.4 3.1 1.1 4.5l3.8-2.6z"/>
        <path d="M12 5.5c1.3 0 2.5.4 3.4 1.1l2.5-2.5C16.4 2.8 14.4 2 12 2 7.8 2 4.1 4.2 2.6 6.8l3.8 2.6c.8-2.4 3-4.2 5.6-4.2z"/>
    </symbol>

    <!-- GitHub -->
    <symbol id="github" viewBox="0 0 24 24" fill="currentColor">
        <path d="M12 .5C5.7.5.5 5.7.5 12c0 5.1 3.3 9.4 7.9 10.9.6.1.8-.3.8-.6v-2.2c-3.2.7-3.9-1.5-3.9-1.5-.5-1.2-1.2-1.5-1.2-1.5-1-.7.1-.7.1-.7 1.1.1 1.7 1.2 1.7 1.2 1 .1.6 2.1 2.9 1.5v-2.1c-2.6-.3-5.3-1.3-5.3-5.9 0-1.3.5-2.4 1.2-3.3-.1-.3-.5-1.5.1-3.1 0 0 1-.3 3.3 1.2a11.4 11.4 0 0 1 6 0c2.3-1.5 3.3-1.2 3.3-1.2.6 1.6.2 2.8.1 3.1.8.9 1.2 2 1.2 3.3 0 4.6-2.7 5.6-5.3 5.9v2.1c0 .3.2.7.8.6A10.9 10.9 0 0 0 23.5 12C23.5 5.7 18.3.5 12 .5z"/>
    </symbol>

    <!-- Facebook -->
    <symbol id="facebook" viewBox="0 0 24 24" fill="currentColor">
        <path d="M22 12a10 10 0 1 0-11.6 9.9v-7h-2v-3h2v-2.3c0-2 1.2-3.1 3-3.1.9 0 1.8.2 1.8.2v2h-1c-1 0-1.3.6-1.3 1.2V12h2.2l-.4 3h-1.8v7A10 10 0 0 0 22 12z"/>
    </symbol>
</svg>